<svg xmlns="http://www.w3.org/2000/svg" version="1.1" xmlns:xlink="http://www.w3.org/1999/xlink" xmlns:svgjs="http://svgjs.com/svgjs" width="800" height="560" preserveAspectRatio="none" viewBox="0 0 800 560"><g mask="url(&quot;#SvgjsMask1096&quot;)" fill="none"><rect width="800" height="560" x="0" y="0" fill="rgba(169, 205, 241, 1)"></rect><path d="M0,353.6C65.595,348.385,124.87,315.485,176.677,274.915C225.121,236.979,255.918,184.361,285.21,130.251C316.514,72.425,374.055,11.536,352.976,-50.75C331.161,-115.212,232.418,-111.378,186.454,-161.563C142.573,-209.475,151.79,-295.389,96.975,-330.266C39.949,-366.55,-36.452,-364.051,-101.175,-344.572C-165.7,-325.152,-216.059,-276.29,-257.892,-223.464C-298.389,-172.326,-325.207,-112.645,-335.811,-48.282C-346.573,17.037,-343.122,84.014,-318.688,145.54C-293.448,209.096,-252.964,267.135,-195.703,304.519C-138.223,342.045,-68.429,359.04,0,353.6" fill="#74aee8"></path><path d="M800 925.85C868.8820000000001 921.405 889.034 825.213 941.987 780.936 985.887 744.229 1051.629 737.1030000000001 1082.984 689.234 1116.154 638.594 1130.809 573.316 1116.512 514.492 1102.613 457.304 1042.195 427.69399999999996 1007.81 379.93100000000004 968.836 325.79499999999996 960.756 245.41199999999998 901.186 215.394 840.542 184.83499999999998 765.595 202.32799999999997 701.858 225.76 640.597 248.28199999999998 597.518 298.468 550.9159999999999 344.16700000000003 500.108 393.99 415.644 433.81 417.146 504.954 418.707 578.874 512.5319999999999 612.154 557.808 670.606 590.41 712.6949999999999 609.081 761.434 645.726 800.054 692.342 849.182 732.4159999999999 930.211 800 925.85" fill="#deecfa"></path></g><defs><mask id="SvgjsMask1096"><rect width="800" height="560" fill="#ffffff"></rect></mask></defs></svg>