<svg xmlns="http://www.w3.org/2000/svg" version="1.1" xmlns:xlink="http://www.w3.org/1999/xlink" xmlns:svgjs="http://svgjs.com/svgjs" width="1440" height="560" preserveAspectRatio="none" viewBox="0 0 1440 560"><g mask="url(&quot;#SvgjsMask1078&quot;)" fill="none"><rect width="1440" height="560" x="0" y="0" fill="rgba(169, 205, 241, 1)"></rect><path d="M0,660.346C128.304,697.253,272.515,670.656,388.392,604.349C506.913,536.53,608.271,425.473,641.799,293.1C673.737,167.005,583.322,47.513,561.93,-80.793C541.186,-205.207,609.505,-362.025,518.082,-448.92C424.8,-537.582,268.699,-463.554,141.155,-480.73C38.133,-494.604,-54.736,-544.956,-158.572,-540.046C-284.792,-534.077,-441.759,-549.699,-518.778,-449.523C-596.593,-348.312,-496.595,-200.365,-516.664,-74.285C-537.213,54.81,-695.911,174.236,-636.609,290.73C-576.414,408.977,-381.946,349.145,-267.198,415.768C-160.619,477.648,-118.438,626.277,0,660.346" fill="#74aee8"></path><path d="M1440 1058.856C1532.549 1054.768 1599.948 975.875 1687.123 944.531 1808.463 900.903 1971.653 940.621 2051.166 839.11 2128.375 740.5409999999999 2105.073 587.145 2057.9139999999998 471.157 2014.3890000000001 364.10699999999997 1891.772 320.73199999999997 1808.026 241.103 1734.342 171.041 1692.01 62.499000000000024 1595.257 31.243000000000052 1497.913-0.2039999999999509 1398.323 56.423 1297.983 76.33499999999998 1186.223 98.51299999999998 1056.458 77.899 972.422 154.841 886.927 233.118 885.154 363.401 860.693 476.70799999999997 834.394 598.53 756.473 736.617 824.251 841.203 893.796 948.515 1057.868 924.386 1178.435 967.0029999999999 1267.3609999999999 998.4359999999999 1345.774 1063.018 1440 1058.856" fill="#deecfa"></path></g><defs><mask id="SvgjsMask1078"><rect width="1440" height="560" fill="#ffffff"></rect></mask></defs></svg>